<svg width="220" height="220" viewBox="0 0 220 220" fill="none" xmlns="http://www.w3.org/2000/svg">
<rect width="220" height="220" fill="white"/>
<path d="M176 109.5C176 118.102 174.306 126.619 171.014 134.566C167.722 142.513 162.898 149.733 156.815 155.815C150.733 161.898 143.513 166.722 135.566 170.014C127.619 173.306 119.102 175 110.5 175L110.5 109.5H176Z" fill="#0E0E0C"/>
<circle cx="105.5" cy="104.5" r="60.5" fill="white"/>
<path d="M154 104.5C154 110.869 152.746 117.176 150.308 123.06C147.871 128.944 144.298 134.291 139.795 138.795C135.291 143.298 129.944 146.871 124.06 149.308C118.176 151.746 111.869 153 105.5 153C99.1309 153 92.8241 151.746 86.9399 149.308C81.0556 146.871 75.709 143.298 71.2053 138.795C66.7017 134.291 63.1292 128.944 60.6918 123.06C58.2545 117.176 57 110.869 57 104.5L105.5 104.5H154Z" fill="#262626"/>
<circle cx="105" cy="105" r="36" fill="white"/>
<circle cx="105.5" cy="104.5" r="24.5" fill="#0E0E0C"/>
<circle cx="105" cy="105" r="14" fill="white"/>
</svg>